{
  "asset": {
    "version": "2.0",
    "generator": "THREE.GLTFExporter"
  },
  "scenes": [
    {
      "nodes": [
        0
      ]
    }
  ],
  "scene": 0,
  "nodes": [
    {
      "children": [
        6
      ],
      "matrix": [
        0.01,
        0,
        0,
        0,
        0,
        0.01,
        0,
        0,
        0,
        0,
        0.01,
        0,
        0,
        0,
        0,
        1
      ]
    },
    {
      "matrix": [
        1,
        0,
        0,
        0,
        0,
        1,
        0,
        0,
        0,
        0,
        1,
        0,
        -53.555253550944144,
        0,
        0,
        1
      ],
      "name": "doing great",
      "mesh": 0
    },
    {
      "matrix": [
        0.5249264705438564,
        -0.43297934474162847,
        -0.7327899341212869,
        0,
        0.6363086301974155,
        0.7714345903161777,
        0,
        0,
        0.5652995026166738,
        -0.4662805592031704,
        0.680454930506437,
        0,
        0,
        0,
        0,
        1
      ],
      "name": "Light Main",
      "extensions": {
        "KHR_lights_punctual": {
          "light": 0
        }
      }
    },
    {
      "matrix": [
        0.19510680503180866,
        -0.3578366664398443,
        -0.9131737265063529,
        0,
        -0.8779748072229228,
        -0.4787068391843504,
        0,
        0,
        -0.43714250824205064,
        0.8017435264904531,
        -0.4075705401749501,
        0,
        0,
        0,
        0,
        1
      ],
      "name": "Key Light",
      "extensions": {
        "KHR_lights_punctual": {
          "light": 1
        }
      }
    },
    {
      "matrix": [
        0.9951661740318579,
        -4.210143268864805e-8,
        -0.09820532604086264,
        0,
        0.0045578291010190605,
        0.9989224384874198,
        0.04618644909746641,
        0,
        0.09809950181667494,
        -0.04641079493334691,
        0.9940938214559907,
        0,
        59.1154664213846,
        85.52558304128524,
        990.224235120465,
        1
      ],
      "camera": 0
    },
    {
      "matrix": [
        1,
        0,
        0,
        0,
        0,
        1,
        0,
        0,
        0,
        0,
        1,
        0,
        0,
        1,
        0,
        1
      ],
      "name": "Default Ambient Light"
    },
    {
      "name": "Scene",
      "children": [
        1,
        2,
        3,
        4,
        5
      ]
    }
  ],
  "bufferViews": [
    {
      "buffer": 0,
      "byteOffset": 0,
      "byteLength": 292368,
      "target": 34962,
      "byteStride": 12
    },
    {
      "buffer": 0,
      "byteOffset": 292368,
      "byteLength": 292368,
      "target": 34962,
      "byteStride": 12
    },
    {
      "buffer": 0,
      "byteOffset": 584736,
      "byteLength": 194912,
      "target": 34962,
      "byteStride": 8
    },
    {
      "buffer": 0,
      "byteOffset": 779648,
      "byteLength": 190608,
      "target": 34963
    }
  ],
  "buffers": [
    {
      "byteLength": 970256,
      "uri": "data:application/octet-stream;base64,"
    }
  ],
  "accessors": [
    {
      "bufferView": 0,
      "componentType": 5126,
      "count": 24364,
      "max": [
        329.54998779296875,
        576.0960083007812,
        44.85215759277344
      ],
      "min": [
        -336.75,
        -82.70397186279297,
        0
      ],
      "type": "VEC3"
    },
    {
      "bufferView": 1,
      "componentType": 5126,
      "count": 24364,
      "max": [
        1,
        1,
        1
      ],
      "min": [
        -1,
        -1,
        -1
      ],
      "type": "VEC3"
    },
    {
      "bufferView": 2,
      "componentType": 5126,
      "count": 24364,
      "max": [
        1,
        1
      ],
      "min": [
        0,
        0
      ],
      "type": "VEC2"
    },
    {
      "bufferView": 3,
      "componentType": 5123,
      "count": 95304,
      "max": [
        24363
      ],
      "min": [
        0
      ],
      "type": "SCALAR"
    }
  ],
  "materials": [
    {
      "pbrMetallicRoughness": {
        "baseColorFactor": [
          0.2604072247096841,
          0.3484691787525989,
          0.7992448362607665,
          1
        ],
        "metallicFactor": 0,
        "roughnessFactor": 0.995
      },
      "doubleSided": false
    }
  ],
  "meshes": [
    {
      "primitives": [
        {
          "mode": 4,
          "attributes": {
            "POSITION": 0,
            "NORMAL": 1,
            "TEXCOORD_0": 2
          },
          "extras": {
            "parameters": {
              "type": "TextGeometry",
              "width": 1058.970106166091,
              "height": 192.00795135601948,
              "depth": 44.85215584326215,
              "horizontalAlign": 3,
              "verticalAlign": 3,
              "fontSize": 200,
              "lineHeight": 1.2,
              "letterSpacing": 0,
              "text": {
                "textValue": "you're doing great :)"
              },
              "textTransform": 1,
              "font": "Public Sans_700",
              "extrudeBevelSize": 2,
              "extrudeBevelSegments": 1
            },
            "type": "TextGeometry"
          },
          "indices": 3,
          "material": 0
        }
      ]
    }
  ],
  "extensions": {
    "KHR_lights_punctual": {
      "lights": [
        {
          "name": "Light Main",
          "color": [
            1,
            1,
            1
          ],
          "intensity": 1,
          "type": "directional"
        },
        {
          "name": "Key Light",
          "color": [
            1,
            1,
            1
          ],
          "intensity": 0.2,
          "type": "directional"
        }
      ]
    }
  },
  "cameras": [
    {
      "type": "orthographic",
      "orthographic": {
        "xmag": 10.617720178308492,
        "ymag": 7.386831591058951,
        "zfar": 100000,
        "znear": 0
      }
    }
  ],
  "extensionsUsed": [
    "KHR_lights_punctual"
  ]
}